<mxfile host="65bd71144e">
    <diagram id="nY00RWo9THP4jsHA1vRy" name="Page-1">
        <mxGraphModel dx="573" dy="1421" grid="1" gridSize="10" guides="1" tooltips="1" connect="1" arrows="1" fold="1" page="1" pageScale="1" pageWidth="850" pageHeight="1100" math="0" shadow="0">
            <root>
                <mxCell id="0"/>
                <mxCell id="1" parent="0"/>
                <mxCell id="7" value="User" style="rounded=0;whiteSpace=wrap;html=1;" parent="1" vertex="1">
                    <mxGeometry x="345" y="340" width="120" height="60" as="geometry"/>
                </mxCell>
                <mxCell id="8" value="Has" style="shape=hexagon;perimeter=hexagonPerimeter2;whiteSpace=wrap;html=1;fixedSize=1;rounded=0;" parent="1" vertex="1">
                    <mxGeometry x="355" y="250" width="100" height="30" as="geometry"/>
                </mxCell>
                <mxCell id="10" value="UserProfile" style="rounded=0;whiteSpace=wrap;html=1;" parent="1" vertex="1">
                    <mxGeometry x="340" y="110" width="130" height="45" as="geometry"/>
                </mxCell>
                <mxCell id="12" value="Child" style="rounded=0;whiteSpace=wrap;html=1;" parent="1" vertex="1">
                    <mxGeometry x="40" y="220" width="120" height="60" as="geometry"/>
                </mxCell>
                <mxCell id="19" value="Has" style="shape=hexagon;perimeter=hexagonPerimeter2;whiteSpace=wrap;html=1;fixedSize=1;rounded=0;" parent="1" vertex="1">
                    <mxGeometry x="160" y="160" width="100" height="30" as="geometry"/>
                </mxCell>
                <mxCell id="23" value="" style="shape=link;html=1;entryX=0;entryY=0.5;entryDx=0;entryDy=0;exitX=0.586;exitY=-0.032;exitDx=0;exitDy=0;exitPerimeter=0;" parent="1" source="12" target="19" edge="1">
                    <mxGeometry width="100" relative="1" as="geometry">
                        <mxPoint x="110" y="250" as="sourcePoint"/>
                        <mxPoint x="240" y="380" as="targetPoint"/>
                    </mxGeometry>
                </mxCell>
                <mxCell id="30" value="M" style="edgeLabel;html=1;align=center;verticalAlign=middle;resizable=0;points=[];fontColor=#FF0000;" parent="23" vertex="1" connectable="0">
                    <mxGeometry x="0.6961" y="1" relative="1" as="geometry">
                        <mxPoint as="offset"/>
                    </mxGeometry>
                </mxCell>
                <mxCell id="24" value="&lt;font color=&quot;#ff3333&quot;&gt;1&lt;/font&gt;" style="endArrow=none;html=1;exitX=1;exitY=0.5;exitDx=0;exitDy=0;entryX=0;entryY=1;entryDx=0;entryDy=0;" parent="1" source="19" target="10" edge="1">
                    <mxGeometry x="-0.8022" y="1" width="50" height="50" relative="1" as="geometry">
                        <mxPoint x="260" y="250" as="sourcePoint"/>
                        <mxPoint x="310" y="200" as="targetPoint"/>
                        <mxPoint as="offset"/>
                    </mxGeometry>
                </mxCell>
                <mxCell id="26" value="1" style="shape=link;html=1;entryX=0.5;entryY=0;entryDx=0;entryDy=0;fontColor=#FF0000;" parent="1" target="8" edge="1">
                    <mxGeometry x="0.7143" width="100" relative="1" as="geometry">
                        <mxPoint x="405" y="160" as="sourcePoint"/>
                        <mxPoint x="190" y="185" as="targetPoint"/>
                        <mxPoint as="offset"/>
                    </mxGeometry>
                </mxCell>
                <mxCell id="27" value="1" style="shape=link;html=1;entryX=0.5;entryY=0;entryDx=0;entryDy=0;fontColor=#FF0000;exitX=0.5;exitY=1;exitDx=0;exitDy=0;" parent="1" source="8" target="7" edge="1">
                    <mxGeometry x="-0.7778" width="100" relative="1" as="geometry">
                        <mxPoint x="390" y="310" as="sourcePoint"/>
                        <mxPoint x="200" y="195" as="targetPoint"/>
                        <mxPoint as="offset"/>
                    </mxGeometry>
                </mxCell>
                <mxCell id="31" value="&lt;div style=&quot;color: rgb(204, 204, 204); background-color: rgb(31, 31, 31); font-family: Consolas, &amp;quot;Courier New&amp;quot;, monospace; font-size: 14px; line-height: 19px;&quot;&gt;&lt;span style=&quot;color: #4ec9b0;&quot;&gt;Technique&lt;/span&gt;&lt;/div&gt;" style="rounded=0;whiteSpace=wrap;html=1;" vertex="1" parent="1">
                    <mxGeometry x="390" y="-40" width="120" height="60" as="geometry"/>
                </mxCell>
                <mxCell id="32" value="&lt;div style=&quot;color: rgb(204, 204, 204); background-color: rgb(31, 31, 31); font-family: Consolas, &amp;quot;Courier New&amp;quot;, monospace; font-size: 14px; line-height: 19px;&quot;&gt;&lt;span style=&quot;color: #4ec9b0;&quot;&gt;Technique_Rate&lt;/span&gt;&lt;/div&gt;" style="rounded=0;whiteSpace=wrap;html=1;" vertex="1" parent="1">
                    <mxGeometry x="40" y="-25" width="124.84" height="60" as="geometry"/>
                </mxCell>
                <mxCell id="35" value="Has" style="shape=hexagon;perimeter=hexagonPerimeter2;whiteSpace=wrap;html=1;fixedSize=1;rounded=0;" vertex="1" parent="1">
                    <mxGeometry x="150" y="70" width="100" height="30" as="geometry"/>
                </mxCell>
                <mxCell id="36" value="" style="shape=link;html=1;entryX=0;entryY=0.5;entryDx=0;entryDy=0;exitX=0.5;exitY=1;exitDx=0;exitDy=0;" edge="1" parent="1" target="35" source="32">
                    <mxGeometry width="100" relative="1" as="geometry">
                        <mxPoint x="95.15999999999994" y="198.08000000000004" as="sourcePoint"/>
                        <mxPoint x="224.84" y="320" as="targetPoint"/>
                    </mxGeometry>
                </mxCell>
                <mxCell id="37" value="M" style="edgeLabel;html=1;align=center;verticalAlign=middle;resizable=0;points=[];fontColor=#FF0000;" vertex="1" connectable="0" parent="36">
                    <mxGeometry x="0.6961" y="1" relative="1" as="geometry">
                        <mxPoint as="offset"/>
                    </mxGeometry>
                </mxCell>
                <mxCell id="46" value="Has" style="shape=hexagon;perimeter=hexagonPerimeter2;whiteSpace=wrap;html=1;fixedSize=1;rounded=0;" vertex="1" parent="1">
                    <mxGeometry x="240" y="-10" width="100" height="30" as="geometry"/>
                </mxCell>
                <mxCell id="47" value="" style="shape=link;html=1;entryX=0;entryY=0.5;entryDx=0;entryDy=0;exitX=1;exitY=0.5;exitDx=0;exitDy=0;" edge="1" parent="1" target="46" source="32">
                    <mxGeometry width="100" relative="1" as="geometry">
                        <mxPoint x="164.83999999999995" y="38.08000000000004" as="sourcePoint"/>
                        <mxPoint x="304.52" y="120" as="targetPoint"/>
                    </mxGeometry>
                </mxCell>
                <mxCell id="48" value="M" style="edgeLabel;html=1;align=center;verticalAlign=middle;resizable=0;points=[];fontColor=#FF0000;" vertex="1" connectable="0" parent="47">
                    <mxGeometry x="0.6961" y="1" relative="1" as="geometry">
                        <mxPoint as="offset"/>
                    </mxGeometry>
                </mxCell>
                <mxCell id="49" value="&lt;font color=&quot;#ff3333&quot;&gt;1&lt;/font&gt;" style="endArrow=none;html=1;exitX=1;exitY=0.5;exitDx=0;exitDy=0;entryX=0;entryY=0.75;entryDx=0;entryDy=0;" edge="1" parent="1" source="46" target="31">
                    <mxGeometry x="-0.8022" y="1" width="50" height="50" relative="1" as="geometry">
                        <mxPoint x="324.52" y="-10" as="sourcePoint"/>
                        <mxPoint x="444.52" y="-70" as="targetPoint"/>
                        <mxPoint as="offset"/>
                    </mxGeometry>
                </mxCell>
                <mxCell id="54" value="&lt;div style=&quot;color: rgb(204, 204, 204); background-color: rgb(31, 31, 31); font-family: Consolas, &amp;quot;Courier New&amp;quot;, monospace; font-size: 14px; line-height: 19px;&quot;&gt;&lt;span style=&quot;color: #4ec9b0;&quot;&gt;Achievement&lt;/span&gt;&lt;/div&gt;" style="rounded=0;whiteSpace=wrap;html=1;" vertex="1" parent="1">
                    <mxGeometry x="690" y="110" width="120" height="60" as="geometry"/>
                </mxCell>
                <mxCell id="55" value="Has" style="shape=hexagon;perimeter=hexagonPerimeter2;whiteSpace=wrap;html=1;fixedSize=1;rounded=0;" vertex="1" parent="1">
                    <mxGeometry x="529.6800000000001" y="116.92000000000002" width="100" height="30" as="geometry"/>
                </mxCell>
                <mxCell id="56" value="" style="shape=link;html=1;entryX=0;entryY=0.5;entryDx=0;entryDy=0;exitX=1;exitY=0.5;exitDx=0;exitDy=0;" edge="1" parent="1" target="55" source="10">
                    <mxGeometry width="100" relative="1" as="geometry">
                        <mxPoint x="409.9999999999998" y="27.5" as="sourcePoint"/>
                        <mxPoint x="609.6800000000001" y="336.92" as="targetPoint"/>
                    </mxGeometry>
                </mxCell>
                <mxCell id="57" value="M" style="edgeLabel;html=1;align=center;verticalAlign=middle;resizable=0;points=[];fontColor=#FF0000;" vertex="1" connectable="0" parent="56">
                    <mxGeometry x="0.6961" y="1" relative="1" as="geometry">
                        <mxPoint as="offset"/>
                    </mxGeometry>
                </mxCell>
                <mxCell id="58" value="&lt;font color=&quot;#ff3333&quot;&gt;1&lt;/font&gt;" style="endArrow=none;html=1;exitX=1;exitY=0.5;exitDx=0;exitDy=0;entryX=0;entryY=0.5;entryDx=0;entryDy=0;" edge="1" parent="1" source="55" target="54">
                    <mxGeometry x="-0.8022" y="1" width="50" height="50" relative="1" as="geometry">
                        <mxPoint x="629.6800000000001" y="206.92000000000002" as="sourcePoint"/>
                        <mxPoint x="600" y="20" as="targetPoint"/>
                        <mxPoint as="offset"/>
                    </mxGeometry>
                </mxCell>
                <mxCell id="60" value="&lt;span style=&quot;color: rgb(78, 201, 176); background-color: rgb(31, 31, 31); font-family: Consolas, &amp;quot;Courier New&amp;quot;, monospace; font-size: 14px;&quot;&gt;Subscription&lt;/span&gt;" style="rounded=0;whiteSpace=wrap;html=1;" vertex="1" parent="1">
                    <mxGeometry x="690.0000000000001" y="290" width="120" height="60" as="geometry"/>
                </mxCell>
                <mxCell id="65" value="&lt;font color=&quot;#ff3333&quot;&gt;1&lt;/font&gt;" style="endArrow=none;html=1;exitX=1;exitY=0.5;exitDx=0;exitDy=0;entryX=0;entryY=0.5;entryDx=0;entryDy=0;" edge="1" parent="1" source="35" target="10">
                    <mxGeometry x="-0.8022" y="1" width="50" height="50" relative="1" as="geometry">
                        <mxPoint x="269.9999999999998" y="185" as="sourcePoint"/>
                        <mxPoint x="349.9999999999998" y="165" as="targetPoint"/>
                        <mxPoint as="offset"/>
                    </mxGeometry>
                </mxCell>
                <mxCell id="70" value="Has" style="shape=hexagon;perimeter=hexagonPerimeter2;whiteSpace=wrap;html=1;fixedSize=1;rounded=0;" vertex="1" parent="1">
                    <mxGeometry x="529.6800000000001" y="225" width="100" height="30" as="geometry"/>
                </mxCell>
                <mxCell id="71" value="" style="shape=link;html=1;entryX=0;entryY=0.5;entryDx=0;entryDy=0;" edge="1" parent="1" target="70" source="10">
                    <mxGeometry width="100" relative="1" as="geometry">
                        <mxPoint x="482.09999999999985" y="190" as="sourcePoint"/>
                        <mxPoint x="604.52" y="475" as="targetPoint"/>
                    </mxGeometry>
                </mxCell>
                <mxCell id="72" value="1" style="edgeLabel;html=1;align=center;verticalAlign=middle;resizable=0;points=[];fontColor=#FF0000;" vertex="1" connectable="0" parent="71">
                    <mxGeometry x="0.6961" y="1" relative="1" as="geometry">
                        <mxPoint as="offset"/>
                    </mxGeometry>
                </mxCell>
                <mxCell id="73" value="" style="shape=link;html=1;entryX=0;entryY=0.5;entryDx=0;entryDy=0;" edge="1" parent="1" target="60">
                    <mxGeometry width="100" relative="1" as="geometry">
                        <mxPoint x="630" y="240" as="sourcePoint"/>
                        <mxPoint x="539.6800000000001" y="250" as="targetPoint"/>
                    </mxGeometry>
                </mxCell>
                <mxCell id="74" value="1" style="edgeLabel;html=1;align=center;verticalAlign=middle;resizable=0;points=[];fontColor=#FF0000;" vertex="1" connectable="0" parent="73">
                    <mxGeometry x="0.6961" y="1" relative="1" as="geometry">
                        <mxPoint x="-40" y="-51" as="offset"/>
                    </mxGeometry>
                </mxCell>
                <mxCell id="76" value="Team" style="rounded=0;whiteSpace=wrap;html=1;" vertex="1" parent="1">
                    <mxGeometry x="610" y="-50" width="120" height="60" as="geometry"/>
                </mxCell>
                <mxCell id="78" value="Has" style="shape=hexagon;perimeter=hexagonPerimeter2;whiteSpace=wrap;html=1;fixedSize=1;rounded=0;" vertex="1" parent="1">
                    <mxGeometry x="500.0000000000001" y="50.000000000000014" width="100" height="30" as="geometry"/>
                </mxCell>
                <mxCell id="80" value="" style="shape=link;html=1;entryX=0;entryY=0.5;entryDx=0;entryDy=0;exitX=0.75;exitY=0;exitDx=0;exitDy=0;" edge="1" parent="1" source="10" target="78">
                    <mxGeometry width="100" relative="1" as="geometry">
                        <mxPoint x="479.9999999999998" y="142.5" as="sourcePoint"/>
                        <mxPoint x="539.6800000000001" y="141.92000000000007" as="targetPoint"/>
                    </mxGeometry>
                </mxCell>
                <mxCell id="81" value="M" style="edgeLabel;html=1;align=center;verticalAlign=middle;resizable=0;points=[];fontColor=#FF0000;" vertex="1" connectable="0" parent="80">
                    <mxGeometry x="0.6961" y="1" relative="1" as="geometry">
                        <mxPoint as="offset"/>
                    </mxGeometry>
                </mxCell>
                <mxCell id="82" value="&lt;font color=&quot;#ff3333&quot;&gt;1&lt;/font&gt;" style="endArrow=none;html=1;exitX=0.859;exitY=0.132;exitDx=0;exitDy=0;entryX=0.313;entryY=0.994;entryDx=0;entryDy=0;exitPerimeter=0;entryPerimeter=0;" edge="1" parent="1" source="78" target="76">
                    <mxGeometry x="-0.8022" y="1" width="50" height="50" relative="1" as="geometry">
                        <mxPoint x="639.6800000000001" y="141.92000000000007" as="sourcePoint"/>
                        <mxPoint x="700" y="150" as="targetPoint"/>
                        <mxPoint as="offset"/>
                    </mxGeometry>
                </mxCell>
            </root>
        </mxGraphModel>
    </diagram>
</mxfile>